<?xml version="1.0" encoding="utf-8"?>
<!-- Generator: Adobe Illustrator 22.0.1, SVG Export Plug-In . SVG Version: 6.00 Build 0)  -->
<svg version="1.1" id="Layer_1" xmlns="http://www.w3.org/2000/svg" xmlns:xlink="http://www.w3.org/1999/xlink" x="0px" y="0px"
	 viewBox="0 0 500 500" style="enable-background:new 0 0 500 500;" xml:space="preserve">
<style type="text/css">
	.st0{fill:url(#SVGID_1_);}
	.st1{fill:#AA272D;}
	.st2{fill:#FFFFFF;}
	.st3{fill:#1E1E1E;}
</style>
<linearGradient id="SVGID_1_" gradientUnits="userSpaceOnUse" x1="35.9" y1="249.3" x2="308.8174" y2="249.3" gradientTransform="matrix(1 0 0 -1 0 500)">
	<stop  offset="0" style="stop-color:#FFFFFF"/>
	<stop  offset="0.3115" style="stop-color:#A8A8A8"/>
	<stop  offset="0.5864" style="stop-color:#606060"/>
	<stop  offset="0.6501" style="stop-color:#515151;stop-opacity:0.9797"/>
	<stop  offset="0.8111" style="stop-color:#303030;stop-opacity:0.9282"/>
	<stop  offset="0.8994" style="stop-color:#242424;stop-opacity:0.9"/>
	<stop  offset="0.9928" style="stop-color:#1E1E1E;stop-opacity:0.9"/>
</linearGradient>
<path class="st0" d="M183,499c0,0-3.2-17.5-5.5-22.9c-2.8-6.8-13-18.2-15.6-25.1c-2.1-5.4-1.2-9.6-10.7-20.6
	c-4.9-5.6-19.9-8.7-21.7-17c-3.7-16.3-27.7-10.6-31.2-16c-6.7-10.2-10.6-35.2-14.3-46.8c-1.3-4.2-7.1-16.2-7.1-16.2s4.3-7,3.5-9.4
	c-0.8-2.3-8.3-4.9-8.3-4.9s-8.2-12.5-5-14.8c3.3-2.3,12.1,9.5,14.9,6.6c3-3.2-8.3-15.5-8.3-15.5s-3-9.2-5.6-8.9
	c-2.6,0.3-1.2,9.1-3.7,9.6c-10.9,2.2-16.8-29.5-18.4-40.5c-0.8-5.9,5.3-18.1,3.4-23.8c-1.1-3.4-9.8-14.1-11.1-17.4
	c-4.3-11.1,8.8-22.1,8.3-34c-0.4-9.8-7.4-9.6-8.9-19.3c-4.1-27.9,8.8-56.2,7.7-84.4c-0.7-19.1-6.3-37.6-9.5-56.4
	c0,0,25,13.1,28.4,6.8c1.8-3.4,0.3-10.1,1.1-12.8c0.9-3.1-1.6-2.8-0.5-5.8c1.1-3.1-4.5-4.7-6.7-7.1h250.6V499H183z"/>
<circle class="st1" cx="76.8" cy="51.1" r="8.8"/>
<circle class="st1" cx="89.5" cy="29.4" r="8.8"/>
<circle class="st1" cx="102.2" cy="51.1" r="8.8"/>
<circle class="st1" cx="202.6" cy="479.4" r="8.8"/>
<g>
	<line class="st2" x1="46.6" y1="181.4" x2="250" y2="181.4"/>
	<path class="st3" d="M46.6,181.3c8.5-0.5,17-0.8,25.4-1c8.5-0.2,16.9-0.3,25.4-0.1l12.7,0.4c4.2,0.2,8.5,0.3,12.7,0.3
		c8.5,0.1,16.9-0.1,25.4-0.3c8.5-0.3,16.9-0.5,25.4-0.6c8.5-0.1,16.9-0.2,25.4-0.2c17,0.1,33.9,0.5,50.9,1.4v0.3
		c-16.9,0.9-33.9,1.3-50.9,1.4c-8.5,0-16.9-0.1-25.4-0.2c-8.5-0.1-17-0.3-25.4-0.6c-8.5-0.3-16.9-0.4-25.4-0.3
		c-4.2,0-8.5,0.2-12.7,0.3l-12.7,0.4c-8.5,0.2-17,0.1-25.4-0.1c-8.5-0.2-17-0.5-25.4-1V181.3z"/>
</g>
<g>
	<line class="st2" x1="46.6" y1="88.8" x2="250" y2="88.8"/>
	<path class="st3" d="M46.6,88.6c8.5-0.5,17-0.8,25.4-1c8.5-0.2,16.9-0.3,25.4-0.1l12.7,0.4c4.2,0.2,8.5,0.3,12.7,0.3
		c8.5,0.1,16.9-0.1,25.4-0.3c8.5-0.3,16.9-0.5,25.4-0.6c8.5-0.1,16.9-0.2,25.4-0.2c17,0.1,33.9,0.5,50.9,1.4v0.3
		c-16.9,0.9-33.9,1.3-50.9,1.4c-8.5,0-16.9-0.1-25.4-0.2c-8.5-0.1-17-0.3-25.4-0.6c-8.5-0.3-16.9-0.4-25.4-0.3
		c-4.2,0-8.5,0.2-12.7,0.3L97.5,90C89,90.2,80.5,90.1,72,90c-8.5-0.2-17-0.5-25.4-1V88.6z"/>
</g>
<g>
	<line class="st2" x1="149.4" y1="2.4" x2="144.9" y2="181.4"/>
	<path class="st3" d="M149.5,2.4c0.4,7.5,0.5,14.9,0.5,22.4c0,7.5-0.1,14.9-0.5,22.4l-0.7,11.2c-0.2,3.7-0.5,7.5-0.6,11.2
		c-0.3,7.5-0.3,14.9-0.2,22.4c0.1,7.5,0.1,14.9,0,22.4c-0.1,7.5-0.1,14.9-0.4,22.4c-0.5,14.9-1.2,29.8-2.6,44.7l-0.3,0
		c-0.6-14.9-0.6-29.9-0.3-44.8c0.1-7.5,0.5-14.9,0.7-22.4c0.3-7.5,0.7-14.9,1.1-22.4c0.4-7.5,0.8-14.9,0.9-22.4
		c0-3.7,0-7.5-0.1-11.2L147,47.1c0-7.5,0.3-14.9,0.6-22.4c0.4-7.5,0.8-14.9,1.6-22.3L149.5,2.4z"/>
</g>
<g>
	<path class="st3" d="M145.1,181.4c1.3,9.8,2.6,19.6,3.7,29.4c1.1,9.8,2.2,19.7,3.2,29.5c1,9.8,2,19.7,2.8,29.5l2.3,29.6L157,299
		c5.1,5.6,10.3,11.2,15.5,16.8c5.2,5.5,10.4,11.1,15.7,16.5l15.9,16.4l15.8,16.4l0,0l0.1,0.1l11.9,15.6l5.8,7.9l5.8,7.9
		c3.8,5.3,7.6,10.6,11.3,16l5.6,8.1c1.8,2.7,3.7,5.4,5.4,8.2l-0.2,0.2c-2.1-2.5-4.2-5-6.3-7.6l-6.1-7.7c-4.1-5.1-8-10.3-12.1-15.4
		l-5.9-7.8l-5.8-7.9l-11.5-15.9l0.1,0.1l-15.4-16.8l-15.3-16.9c-5.1-5.6-10.3-11.2-15.4-16.8c-5.2-5.6-10.4-11.1-15.7-16.5l-0.1-0.1
		l0-0.2l-3.5-29.5c-1.1-9.8-2.1-19.7-3-29.5c-0.9-9.8-1.8-19.7-2.6-29.6c-0.8-9.9-1.5-19.7-2.1-29.6L145.1,181.4z"/>
</g>
<g>
	<path class="st2" d="M115,63.8c6.9,15.5,13.2,31.3,19.4,47.2c6.1,15.9,11.8,32,17.1,48.3c5.4,16.2,10.3,32.6,14.8,49.1
		s8.8,33.1,12.6,49.9c7.6,33.5,13.8,67.3,18.4,101.4c2.3,17,4.2,34.2,5.7,51.3c1.4,17.1,2.6,34.3,3.2,51.6
		c-1.2-17.1-2.6-34.3-4.4-51.4c-1.7-17.1-3.9-34.2-6.4-51.1c-2.5-16.9-5.2-33.9-8.4-50.8c-3.1-16.8-6.7-33.6-10.5-50.3
		c-3.7-16.7-7.9-33.3-12.4-49.8c-4.4-16.5-9.4-32.8-14.4-49.1c-5.1-16.3-10.6-32.5-16.4-48.5C127.5,95.4,121.3,79.6,115,63.8z"/>
</g>
</svg>
